# xmcd CD database file generated by LOLA_Freedb v0.9beta0
# 
# Track frame offsets:
#      150
#      9551
#      18677
#      27201
#      39033
#      48606
#      58667
#      68448
#      78467
#      88965
#      100130
#      111668
#      123402
#      137135
#      147653
#      159357
# 
# Disc length: 2262 seconds
# 
# Revision: 0 
# Processed by: cddbd v1.5.2PL0 Copyright (c) Steve Scherf et al.
# Submitted via: LOLA_Freedb v0.9beta0
# 
DISCID=dc08d410
DTITLE=Charlie Rich - The Original Charlie Rich
DYEAR=1978
DGENRE=
TTITLE0=Charlie Rich -1958 - Whirlwind
TTITLE1=Charlie Rich - 1958 - Philadelphia Baby
TTITLE2=Rebound - 1958
TTITLE3=Charlie Rich - Big Man - 1959
TTITLE4=Charlie Rich - 1959 - Lonely Weekends
TTITLE5=Charlie Rich - Everything I Do Is Wrong - 1959
TTITLE6=Charlie Rich - Sad News - 1959
TTITLE7=Charlie Rich - Red Man - 1960
TTITLE8=Charlie Rich - Who Will The Next Fool Be - 1961
TTITLE9=Charlie Rich - Caught In The Middle - 1961
TTITLE10=Charlie Rich - Easy Money - 1962
TTITLE11=Charlie Rich - Midnite Blues - 1962
TTITLE12=Charlie Rich - Sittin' And Thinkin' - 1962
TTITLE13=Charlie Rich - I Finally Found Out - 1962
TTITLE14=Charlie Rich - There's Another Place I Can't Go - 1962
TTITLE15=Charlie Rich - I Need Your Love -  year unknown
EXTD=Collectors Edition Special GOLD VINYL
EXTT0=
EXTT1=
EXTT2=
EXTT3=
EXTT4=
EXTT5=
EXTT6=
EXTT7=
EXTT8=
EXTT9=
EXTT10=
EXTT11=
EXTT12=
EXTT13=
EXTT14=
EXTT15=
PLAYORDER=
